<svg width="299" height="59" viewBox="0 0 299 59" fill="none" xmlns="http://www.w3.org/2000/svg">
<path fill-rule="evenodd" clip-rule="evenodd" d="M32.5142 0.442178C32.7137 0.242757 32.9738 0.112701 33.2512 0.0866887C33.6241 0.0433368 34.0056 0.173393 34.2743 0.442178L50.7222 16.8901V13.9681C50.7222 13.2832 51.2772 12.7282 51.9621 12.7282H57.2424C57.9274 12.7282 58.4823 13.2832 58.4823 13.9681V24.6502L66.2858 32.4536C66.5112 32.6877 66.6412 32.9998 66.6412 33.3293C66.6499 34.0143 66.095 34.5779 65.4014 34.5779H58.6384V57.3465C58.6384 58.0315 58.0835 58.5864 57.3985 58.5864H9.3814C8.69643 58.5864 8.14152 58.0315 8.14152 57.3465V34.5779H1.37854C1.04906 34.5779 0.736928 34.4478 0.502825 34.2137C0.0172779 33.7368 0.0172773 32.9478 0.494154 32.4536L32.5142 0.442178ZM33.2946 22.864C36.0528 22.864 38.2888 20.628 38.2888 17.8698C38.2888 15.1116 36.0528 12.8756 33.2946 12.8756C30.5364 12.8756 28.3004 15.1116 28.3004 17.8698C28.3004 20.628 30.5364 22.864 33.2946 22.864ZM28.3004 52.9485V33.1704L37.9246 23.3757V52.9485H28.3004Z" fill="white"/>
<path d="M81.2739 33.6848L86.2282 30.4718V57.8233H81.2739V33.6848ZM83.751 25.2079C82.7877 25.2079 81.9792 24.8983 81.3255 24.279C80.7062 23.6597 80.3966 22.9028 80.3966 22.0083C80.3966 21.1138 80.7062 20.3569 81.3255 19.7376C81.9792 19.0839 82.7877 18.7571 83.751 18.7571C84.7144 18.7571 85.5057 19.0667 86.1249 19.686C86.7786 20.2709 87.1055 21.0106 87.1055 21.9051C87.1055 22.834 86.7786 23.6253 86.1249 24.279C85.5057 24.8983 84.7144 25.2079 83.751 25.2079Z" fill="white"/>
<path d="M128.871 30.2138C132.311 30.2138 135.029 31.2115 137.024 33.207C139.054 35.2024 140.069 38.1612 140.069 42.0833V57.8233H135.115V42.651C135.115 40.0018 134.496 38.0064 133.257 36.6646C132.053 35.3228 130.316 34.6519 128.045 34.6519C125.533 34.6519 123.538 35.4432 122.059 37.0259C120.579 38.5741 119.839 40.8103 119.839 43.7347V57.8233H114.885V42.651C114.885 40.0018 114.266 38.0064 113.027 36.6646C111.823 35.3228 110.086 34.6519 107.815 34.6519C105.304 34.6519 103.308 35.4432 101.829 37.0259C100.349 38.5741 99.6096 40.8103 99.6096 43.7347V57.8233H94.6554V33.6848L99.4032 30.4718V34.5487C100.401 33.1381 101.708 32.0716 103.325 31.3491C104.942 30.5922 106.783 30.2138 108.847 30.2138C110.98 30.2138 112.873 30.6438 114.524 31.5039C116.175 32.364 117.448 33.6198 118.343 35.2712C119.375 33.6886 120.803 32.4501 122.626 31.5555C124.484 30.661 126.566 30.2138 128.871 30.2138Z" fill="white"/>
<path d="M160.019 58.133C157.301 58.133 154.858 57.5309 152.691 56.3268C150.523 55.1226 148.82 53.4712 147.582 51.3725C146.378 49.2394 145.775 46.8311 145.775 44.1476C145.775 41.464 146.378 39.0729 147.582 36.9742C148.82 34.8412 150.523 33.1898 152.691 32.02C154.858 30.8158 157.301 30.2138 160.019 30.2138C162.737 30.2138 165.162 30.8158 167.295 32.02C169.463 33.1898 171.149 34.8412 172.353 36.9742C173.591 39.0729 174.211 41.464 174.211 44.1476C174.211 46.8311 173.591 49.2394 172.353 51.3725C171.149 53.4712 169.463 55.1226 167.295 56.3268C165.162 57.5309 162.737 58.133 160.019 58.133ZM160.019 53.798C161.774 53.798 163.339 53.4024 164.715 52.6111C166.126 51.7854 167.227 50.65 168.018 49.205C168.809 47.7256 169.205 46.0398 169.205 44.1476C169.205 42.2553 168.809 40.5867 168.018 39.1417C167.227 37.6623 166.126 36.527 164.715 35.7357C163.339 34.9444 161.774 34.5487 160.019 34.5487C158.264 34.5487 156.682 34.9444 155.271 35.7357C153.895 36.527 152.794 37.6623 151.968 39.1417C151.177 40.5867 150.781 42.2553 150.781 44.1476C150.781 46.0398 151.177 47.7256 151.968 49.205C152.794 50.65 153.895 51.7854 155.271 52.6111C156.682 53.4024 158.264 53.798 160.019 53.798Z" fill="white"/>
<path d="M191.745 58.133C189.027 58.133 186.584 57.5309 184.417 56.3268C182.249 55.1226 180.546 53.4712 179.308 51.3725C178.104 49.2394 177.501 46.8311 177.501 44.1476C177.501 41.464 178.104 39.0729 179.308 36.9742C180.546 34.8412 182.249 33.1898 184.417 32.02C186.584 30.8158 189.027 30.2138 191.745 30.2138C194.463 30.2138 196.888 30.8158 199.021 32.02C201.189 33.1898 202.875 34.8412 204.079 36.9742C205.317 39.0729 205.937 41.464 205.937 44.1476C205.937 46.8311 205.317 49.2394 204.079 51.3725C202.875 53.4712 201.189 55.1226 199.021 56.3268C196.888 57.5309 194.463 58.133 191.745 58.133ZM191.745 53.798C193.5 53.798 195.065 53.4024 196.441 52.6111C197.852 51.7854 198.953 50.65 199.744 49.205C200.535 47.7256 200.931 46.0398 200.931 44.1476C200.931 42.2553 200.535 40.5867 199.744 39.1417C198.953 37.6623 197.852 36.527 196.441 35.7357C195.065 34.9444 193.5 34.5487 191.745 34.5487C189.99 34.5487 188.408 34.9444 186.997 35.7357C185.621 36.527 184.52 37.6623 183.694 39.1417C182.903 40.5867 182.507 42.2553 182.507 44.1476C182.507 46.0398 182.903 47.7256 183.694 49.205C184.52 50.65 185.621 51.7854 186.997 52.6111C188.408 53.4024 189.99 53.798 191.745 53.798Z" fill="white"/>
<path d="M226.258 30.2138C228.907 30.2138 231.281 30.7986 233.379 31.9684C235.478 33.1381 237.112 34.7724 238.282 36.871C239.486 38.9697 240.088 41.3952 240.088 44.1476C240.088 46.8999 239.486 49.3427 238.282 51.4757C237.112 53.5744 235.478 55.2086 233.379 56.3784C231.281 57.5481 228.907 58.133 226.258 58.133C224.228 58.133 222.37 57.7373 220.684 56.946C218.998 56.1547 217.605 55.0022 216.504 53.4884V57.8233H211.756V22.864L216.71 19.5312V27.0658V34.6003C217.811 33.1553 219.188 32.0716 220.839 31.3491C222.49 30.5922 224.297 30.2138 226.258 30.2138ZM225.845 53.798C227.599 53.798 229.165 53.4024 230.541 52.6111C231.952 51.7854 233.053 50.65 233.844 49.205C234.67 47.7256 235.082 46.0398 235.082 44.1476C235.082 42.2553 234.67 40.5867 233.844 39.1417C233.053 37.6623 231.952 36.527 230.541 35.7357C229.165 34.9444 227.599 34.5487 225.845 34.5487C224.125 34.5487 222.559 34.9444 221.149 35.7357C219.738 36.527 218.637 37.6623 217.846 39.1417C217.054 40.5867 216.659 42.2553 216.659 44.1476C216.659 46.0398 217.054 47.7256 217.846 49.205C218.637 50.65 219.738 51.7854 221.149 52.6111C222.559 53.4024 224.125 53.798 225.845 53.798Z" fill="white"/>
<path d="M245.953 33.6848L250.856 30.4718V57.8233H245.901L245.953 33.6848ZM248.378 25.2079C247.415 25.2079 246.607 24.8983 245.953 24.279C245.334 23.6597 245.024 22.9028 245.024 22.0083C245.024 21.1138 245.334 20.3569 245.953 19.7376C246.607 19.0839 247.415 18.7571 248.378 18.7571C249.342 18.7571 250.133 19.0667 250.752 19.686C251.406 20.2709 251.733 21.0106 251.733 21.9051C251.733 22.834 251.406 23.6253 250.752 24.279C250.133 24.8983 249.342 25.2079 248.378 25.2079Z" fill="white"/>
<path d="M267.591 58.133C264.942 58.133 262.895 57.4105 261.45 55.9655C260.005 54.4861 259.283 52.4218 259.283 49.7727V22.864L264.237 19.5312V49.3599C264.237 50.8392 264.581 51.9746 265.269 52.7659C265.992 53.5572 267.058 53.9528 268.469 53.9528C269.329 53.9528 270.137 53.7808 270.894 53.4368L271.152 57.5137C270.017 57.9266 268.83 58.133 267.591 58.133Z" fill="white"/>
<path d="M286.661 53.798C289.93 53.798 292.562 52.6971 294.557 50.4952L297.241 53.6948C296.037 55.1398 294.506 56.2407 292.648 56.9976C290.824 57.7545 288.777 58.133 286.507 58.133C283.617 58.133 281.053 57.5481 278.817 56.3784C276.581 55.1742 274.843 53.5056 273.605 51.3725C272.401 49.2394 271.799 46.8311 271.799 44.1476C271.799 41.4984 272.383 39.1073 273.553 36.9742C274.757 34.8412 276.392 33.1898 278.456 32.02C280.555 30.8158 282.911 30.2138 285.526 30.2138C288.003 30.2138 290.257 30.7814 292.286 31.9168C294.316 33.0177 295.933 34.5831 297.137 36.613C298.342 38.6429 298.961 40.9824 298.995 43.6315L277.269 47.8633C277.957 49.7555 279.11 51.2177 280.727 52.2498C282.378 53.282 284.356 53.798 286.661 53.798ZM285.526 34.3939C283.806 34.3939 282.258 34.7896 280.881 35.5809C279.54 36.3722 278.49 37.4903 277.733 38.9353C276.976 40.3459 276.598 41.9973 276.598 43.8895V44.4056L294.093 41.1028C293.645 39.1073 292.648 37.4903 291.1 36.2518C289.551 35.0132 287.693 34.3939 285.526 34.3939Z" fill="white"/>
</svg>
