<svg width="67" height="59" viewBox="0 0 67 59" fill="none" xmlns="http://www.w3.org/2000/svg">
<path fill-rule="evenodd" clip-rule="evenodd" d="M32.5142 0.442182C32.7137 0.24276 32.9738 0.112704 33.2512 0.0866919C33.6241 0.04334 34.0056 0.173396 34.2743 0.442182L50.7222 16.8901V13.9681C50.7222 13.2832 51.2772 12.7283 51.9621 12.7283H57.2424C57.9274 12.7283 58.4823 13.2832 58.4823 13.9681V24.6502L66.2858 32.4536C66.5112 32.6877 66.6413 32.9998 66.6413 33.3293C66.6499 34.0143 66.095 34.5779 65.4014 34.5779H58.6384V57.3465C58.6384 58.0315 58.0835 58.5864 57.3985 58.5864H9.3814C8.69643 58.5864 8.14152 58.0315 8.14152 57.3465V34.5779H1.37854C1.04906 34.5779 0.736929 34.4478 0.502825 34.2137C0.0172785 33.7368 0.0172779 32.9478 0.494155 32.4536L32.5142 0.442182ZM33.2946 22.864C36.0528 22.864 38.2888 20.628 38.2888 17.8698C38.2888 15.1116 36.0528 12.8756 33.2946 12.8756C30.5364 12.8756 28.3004 15.1116 28.3004 17.8698C28.3004 20.628 30.5364 22.864 33.2946 22.864ZM28.3004 52.9485V33.1704L37.9246 23.3757V52.9485H28.3004Z" fill="#9747FF"/>
</svg>
